<svg xmlns="http://www.w3.org/2000/svg" xmlns:xlink="http://www.w3.org/1999/xlink" version="1.1" x="0px" y="0px" viewBox="0 0 100 125" style="enable-background:new 0 0 100 100;" xml:space="preserve"><style type="text/css">
	.st0{fill:none;stroke:#000000;stroke-width:2;stroke-linecap:round;stroke-linejoin:round;stroke-miterlimit:10;}
	.st1{fill:none;stroke:#000000;stroke-width:2;stroke-miterlimit:10;}
</style><path d="M33.6,48.3c0-9.7,7.9-17.7,17.7-17.7c0.6,0,1-0.4,1-1s-0.4-1-1-1c-10.8,0-19.7,8.8-19.7,19.7c0,10.5,8.3,19.1,18.7,19.6v2.4  H42c-0.6,0-1,0.4-1,1s0.4,1,1,1h18.2c0.6,0,1-0.4,1-1s-0.4-1-1-1h-8V68c5.4-0.3,10.5-2.8,14.1-7c0.4-0.4,0.3-1.1-0.1-1.4  s-1.1-0.3-1.4,0.1c-3.2,3.7-7.7,6-12.5,6.2v-1.2c8.5-0.5,15.2-7.6,15.2-16.1c0-8.9-7.3-16.2-16.2-16.2c-8.9,0-16.2,7.3-16.2,16.2  c0,2.6,0.6,5.1,1.7,7.2c0,0,0,0,0,0.1c2.5,5,7.6,8.5,13.4,8.9V66C41,65.4,33.6,57.7,33.6,48.3z M38.5,42.4h4.8  c-0.5,1.6-0.8,3.3-0.9,5.2h-5.3C37.2,45.8,37.7,44,38.5,42.4z M65.4,47.6h-5.3c-0.1-1.9-0.4-3.7-0.9-5.2H64  C64.7,44,65.2,45.8,65.4,47.6z M64.1,54.5h-5c0.5-1.5,0.8-3.1,0.9-4.9h5.3C65.3,51.4,64.8,53,64.1,54.5z M52.2,61.6v-5.1h3.9  C54.9,58.8,53.4,60.5,52.2,61.6z M52.2,54.5v-4.9h5.8C58,51.4,57.6,53,57,54.5H52.2z M58.1,47.6h-5.9v-5.2H57  C57.6,43.9,58,45.7,58.1,47.6z M52.2,40.4v-5.6c0.8,0.8,2.6,2.7,4,5.6H52.2z M50.2,40.4h-4c1.4-2.9,3.2-4.8,4-5.6V40.4z M50.2,42.4  v5.2h-5.9c0.1-1.9,0.5-3.7,1-5.2H50.2z M37.1,49.6h5.3c0.1,1.8,0.4,3.4,0.9,4.9h-5C37.6,53,37.2,51.4,37.1,49.6z M44.4,49.6h5.9v4.9  h-4.8C44.9,53,44.5,51.4,44.4,49.6z M50.2,56.5v5.1c-1.1-1.1-2.6-2.8-3.9-5.1H50.2z M54.2,62.5c1.3-1.4,3-3.4,4.2-6H63  C61,59.5,57.9,61.7,54.2,62.5z M62.8,40.4h-4.3c-1-2.3-2.3-4.1-3.3-5.4C58.2,35.9,60.9,37.8,62.8,40.4z M47.3,35  c-1.1,1.3-2.3,3.1-3.3,5.4h-4.3C41.5,37.8,44.2,35.9,47.3,35z M39.4,56.5h4.7c1.2,2.6,2.8,4.6,4.2,6C44.6,61.7,41.4,59.5,39.4,56.5z  "/><path d="M15.6,50.6c0,17.9,13.4,32.7,31.1,34.5c0,0,0.1,0,0.1,0c0.5,0,0.9-0.4,1-0.9c0.1-0.5-0.3-1-0.9-1.1  c-16.7-1.7-29.3-15.7-29.3-32.5c0-16.8,12.9-30.9,29.5-32.5l-3.5,3.5c-0.4,0.4-0.4,1,0,1.4c0.2,0.2,0.5,0.3,0.7,0.3s0.5-0.1,0.7-0.3  l5.3-5.3c0.4-0.4,0.4-1,0-1.4L45,11c-0.4-0.4-1-0.4-1.4,0s-0.4,1,0,1.4l3.6,3.6C29.4,17.6,15.6,32.7,15.6,50.6z"/><path d="M53.8,16c-0.6-0.1-1,0.3-1.1,0.9c-0.1,0.5,0.3,1,0.9,1.1C70.3,19.7,83,33.6,83,50.5C83,67.3,70,81.4,53.4,83l3.5-3.5  c0.4-0.4,0.4-1,0-1.4s-1-0.4-1.4,0l-5.3,5.3c-0.4,0.4-0.4,1,0,1.4l5.3,5.3c0.2,0.2,0.5,0.3,0.7,0.3s0.5-0.1,0.7-0.3  c0.4-0.4,0.4-1,0-1.4L53.3,85C71.1,83.5,85,68.4,85,50.5C85,32.6,71.6,17.8,53.8,16z"/><text x="0" y="115" fill="#000000" font-size="5px" font-weight="bold" font-family="'Helvetica Neue', Helvetica, Arial-Unicode, Arial, Sans-serif">Created by Made by Made</text><text x="0" y="120" fill="#000000" font-size="5px" font-weight="bold" font-family="'Helvetica Neue', Helvetica, Arial-Unicode, Arial, Sans-serif">from the Noun Project</text></svg>